<mxfile host="Electron" modified="2023-10-09T19:22:04.351Z" agent="Mozilla/5.0 (Windows NT 10.0; Win64; x64) AppleWebKit/537.36 (KHTML, like Gecko) draw.io/21.2.8 Chrome/112.0.5615.165 Electron/24.2.0 Safari/537.36" etag="KzsayDB6gAq1ld2BY4GA" version="21.2.8" type="device" pages="2">
  <diagram name="Diagramme Cas d&#39;Utilisation" id="1Pl3DoamdnMdeTUepWtE">
    <mxGraphModel dx="1701" dy="882" grid="0" gridSize="10" guides="1" tooltips="1" connect="1" arrows="1" fold="1" page="1" pageScale="1" pageWidth="827" pageHeight="1169" math="0" shadow="0">
      <root>
        <mxCell id="0" />
        <mxCell id="1" parent="0" />
        <mxCell id="McVF7eLdfxXBsxFznnID-1" value="échanger des données" style="rounded=1;whiteSpace=wrap;html=1;" parent="1" vertex="1">
          <mxGeometry x="260" y="400" width="120" height="60" as="geometry" />
        </mxCell>
        <mxCell id="McVF7eLdfxXBsxFznnID-2" value="&lt;h1&gt;Diagramme cas d&#39;utilisations :&lt;/h1&gt;" style="text;html=1;strokeColor=none;fillColor=none;spacing=5;spacingTop=-20;whiteSpace=wrap;overflow=hidden;rounded=0;" parent="1" vertex="1">
          <mxGeometry x="34" y="110" width="380" height="40" as="geometry" />
        </mxCell>
        <mxCell id="McVF7eLdfxXBsxFznnID-11" style="edgeStyle=orthogonalEdgeStyle;rounded=0;orthogonalLoop=1;jettySize=auto;html=1;exitX=0.5;exitY=0.5;exitDx=0;exitDy=0;exitPerimeter=0;entryX=0;entryY=0.5;entryDx=0;entryDy=0;" parent="1" source="McVF7eLdfxXBsxFznnID-3" target="McVF7eLdfxXBsxFznnID-1" edge="1">
          <mxGeometry relative="1" as="geometry" />
        </mxCell>
        <mxCell id="McVF7eLdfxXBsxFznnID-14" style="edgeStyle=orthogonalEdgeStyle;rounded=0;orthogonalLoop=1;jettySize=auto;html=1;exitX=0.5;exitY=0.5;exitDx=0;exitDy=0;exitPerimeter=0;entryX=0;entryY=0.5;entryDx=0;entryDy=0;" parent="1" source="McVF7eLdfxXBsxFznnID-3" target="McVF7eLdfxXBsxFznnID-13" edge="1">
          <mxGeometry relative="1" as="geometry" />
        </mxCell>
        <mxCell id="McVF7eLdfxXBsxFznnID-17" style="edgeStyle=orthogonalEdgeStyle;rounded=0;orthogonalLoop=1;jettySize=auto;html=1;exitX=0.5;exitY=0.5;exitDx=0;exitDy=0;exitPerimeter=0;entryX=0;entryY=0.5;entryDx=0;entryDy=0;" parent="1" source="McVF7eLdfxXBsxFznnID-3" target="McVF7eLdfxXBsxFznnID-16" edge="1">
          <mxGeometry relative="1" as="geometry" />
        </mxCell>
        <mxCell id="McVF7eLdfxXBsxFznnID-30" style="edgeStyle=orthogonalEdgeStyle;rounded=0;orthogonalLoop=1;jettySize=auto;html=1;exitX=0.5;exitY=0.5;exitDx=0;exitDy=0;exitPerimeter=0;entryX=0;entryY=0.5;entryDx=0;entryDy=0;" parent="1" source="McVF7eLdfxXBsxFznnID-3" target="McVF7eLdfxXBsxFznnID-29" edge="1">
          <mxGeometry relative="1" as="geometry" />
        </mxCell>
        <mxCell id="McVF7eLdfxXBsxFznnID-3" value="user&lt;br&gt;" style="shape=umlActor;verticalLabelPosition=bottom;verticalAlign=top;html=1;outlineConnect=0;" parent="1" vertex="1">
          <mxGeometry x="130" y="470" width="30" height="60" as="geometry" />
        </mxCell>
        <mxCell id="McVF7eLdfxXBsxFznnID-4" value="&lt;h1&gt;&lt;font style=&quot;font-size: 36px;&quot;&gt;&lt;i&gt;3W PROJECT&lt;/i&gt;&lt;/font&gt;&lt;/h1&gt;" style="text;html=1;strokeColor=none;fillColor=none;spacing=5;spacingTop=-20;whiteSpace=wrap;overflow=hidden;rounded=0;" parent="1" vertex="1">
          <mxGeometry x="34" y="40" width="380" height="40" as="geometry" />
        </mxCell>
        <mxCell id="McVF7eLdfxXBsxFznnID-13" value="Lire des données" style="rounded=1;whiteSpace=wrap;html=1;" parent="1" vertex="1">
          <mxGeometry x="260" y="480" width="120" height="60" as="geometry" />
        </mxCell>
        <mxCell id="McVF7eLdfxXBsxFznnID-16" value="Gérer des données" style="rounded=1;whiteSpace=wrap;html=1;" parent="1" vertex="1">
          <mxGeometry x="260" y="560" width="120" height="60" as="geometry" />
        </mxCell>
        <mxCell id="McVF7eLdfxXBsxFznnID-29" value="Configurer la station" style="rounded=1;whiteSpace=wrap;html=1;" parent="1" vertex="1">
          <mxGeometry x="260" y="640" width="120" height="60" as="geometry" />
        </mxCell>
        <mxCell id="yQWRoE8VBg5nkR_kqxNj-127" style="edgeStyle=orthogonalEdgeStyle;rounded=0;orthogonalLoop=1;jettySize=auto;html=1;exitX=0.5;exitY=0.5;exitDx=0;exitDy=0;exitPerimeter=0;entryX=1;entryY=0.5;entryDx=0;entryDy=0;" parent="1" source="yQWRoE8VBg5nkR_kqxNj-124" target="yQWRoE8VBg5nkR_kqxNj-126" edge="1">
          <mxGeometry relative="1" as="geometry" />
        </mxCell>
        <mxCell id="yQWRoE8VBg5nkR_kqxNj-131" style="edgeStyle=orthogonalEdgeStyle;rounded=0;orthogonalLoop=1;jettySize=auto;html=1;exitX=0.5;exitY=0.5;exitDx=0;exitDy=0;exitPerimeter=0;entryX=1;entryY=0.5;entryDx=0;entryDy=0;" parent="1" source="yQWRoE8VBg5nkR_kqxNj-124" target="McVF7eLdfxXBsxFznnID-13" edge="1">
          <mxGeometry relative="1" as="geometry" />
        </mxCell>
        <mxCell id="yQWRoE8VBg5nkR_kqxNj-133" style="edgeStyle=orthogonalEdgeStyle;rounded=0;orthogonalLoop=1;jettySize=auto;html=1;exitX=0.5;exitY=0.5;exitDx=0;exitDy=0;exitPerimeter=0;entryX=1;entryY=0.5;entryDx=0;entryDy=0;" parent="1" source="yQWRoE8VBg5nkR_kqxNj-124" target="yQWRoE8VBg5nkR_kqxNj-132" edge="1">
          <mxGeometry relative="1" as="geometry" />
        </mxCell>
        <mxCell id="yQWRoE8VBg5nkR_kqxNj-124" value="arduino" style="shape=umlActor;verticalLabelPosition=bottom;verticalAlign=top;html=1;outlineConnect=0;" parent="1" vertex="1">
          <mxGeometry x="530" y="320" width="30" height="60" as="geometry" />
        </mxCell>
        <mxCell id="yQWRoE8VBg5nkR_kqxNj-126" value="écrire des données" style="rounded=1;whiteSpace=wrap;html=1;" parent="1" vertex="1">
          <mxGeometry x="260" y="320" width="120" height="60" as="geometry" />
        </mxCell>
        <mxCell id="yQWRoE8VBg5nkR_kqxNj-130" style="edgeStyle=orthogonalEdgeStyle;rounded=0;orthogonalLoop=1;jettySize=auto;html=1;exitX=0.5;exitY=0.5;exitDx=0;exitDy=0;exitPerimeter=0;entryX=1;entryY=0.5;entryDx=0;entryDy=0;" parent="1" source="yQWRoE8VBg5nkR_kqxNj-128" target="yQWRoE8VBg5nkR_kqxNj-129" edge="1">
          <mxGeometry relative="1" as="geometry" />
        </mxCell>
        <mxCell id="yQWRoE8VBg5nkR_kqxNj-128" value="capteur" style="shape=umlActor;verticalLabelPosition=bottom;verticalAlign=top;html=1;outlineConnect=0;" parent="1" vertex="1">
          <mxGeometry x="530" y="590" width="30" height="60" as="geometry" />
        </mxCell>
        <mxCell id="yQWRoE8VBg5nkR_kqxNj-129" value="relerver des données" style="rounded=1;whiteSpace=wrap;html=1;" parent="1" vertex="1">
          <mxGeometry x="260" y="720" width="120" height="60" as="geometry" />
        </mxCell>
        <mxCell id="yQWRoE8VBg5nkR_kqxNj-132" value="enregistrer des données" style="rounded=1;whiteSpace=wrap;html=1;" parent="1" vertex="1">
          <mxGeometry x="260" y="240" width="120" height="60" as="geometry" />
        </mxCell>
        <mxCell id="yQWRoE8VBg5nkR_kqxNj-134" value="" style="rounded=1;whiteSpace=wrap;html=1;fillColor=none;" parent="1" vertex="1">
          <mxGeometry x="190" y="180" width="300" height="620" as="geometry" />
        </mxCell>
        <mxCell id="2w6pEQ2glTf_23ry96nn-3" value="&lt;font style=&quot;font-size: 14px;&quot;&gt;&lt;b&gt;&lt;u&gt;Système&lt;/u&gt;&lt;/b&gt;&lt;/font&gt;" style="text;html=1;strokeColor=none;fillColor=none;align=center;verticalAlign=middle;whiteSpace=wrap;rounded=0;" parent="1" vertex="1">
          <mxGeometry x="310" y="190" width="60" height="30" as="geometry" />
        </mxCell>
      </root>
    </mxGraphModel>
  </diagram>
  <diagram id="hqAf0CzPMb5sKV2Ey1hJ" name="Diagrammes de Séquence">
    <mxGraphModel dx="2066" dy="1071" grid="0" gridSize="10" guides="1" tooltips="1" connect="1" arrows="1" fold="1" page="1" pageScale="1" pageWidth="827" pageHeight="1169" math="0" shadow="0">
      <root>
        <mxCell id="0" />
        <mxCell id="1" parent="0" />
        <mxCell id="dVdCL4T9mxgboT9Tn8U4-100" value="&lt;b&gt;LOOP&lt;/b&gt;" style="shape=umlFrame;whiteSpace=wrap;html=1;pointerEvents=0;" parent="1" vertex="1">
          <mxGeometry x="1140" y="520" width="960" height="260" as="geometry" />
        </mxCell>
        <mxCell id="dVdCL4T9mxgboT9Tn8U4-1" value="&lt;b&gt;LOOP&lt;/b&gt;" style="shape=umlFrame;whiteSpace=wrap;html=1;pointerEvents=0;" parent="1" vertex="1">
          <mxGeometry x="88" y="409" width="789" height="455" as="geometry" />
        </mxCell>
        <mxCell id="dVdCL4T9mxgboT9Tn8U4-2" value="&lt;h1&gt;Diagrammes de séquences :&lt;/h1&gt;" style="text;html=1;strokeColor=none;fillColor=none;spacing=5;spacingTop=-20;whiteSpace=wrap;overflow=hidden;rounded=0;" parent="1" vertex="1">
          <mxGeometry x="70" y="90" width="380" height="40" as="geometry" />
        </mxCell>
        <mxCell id="dVdCL4T9mxgboT9Tn8U4-3" value="&lt;b&gt;Arduino&lt;br&gt;&lt;/b&gt;" style="rounded=1;whiteSpace=wrap;html=1;" parent="1" vertex="1">
          <mxGeometry x="397" y="230" width="120" height="40" as="geometry" />
        </mxCell>
        <mxCell id="dVdCL4T9mxgboT9Tn8U4-4" value="" style="endArrow=none;html=1;rounded=0;entryX=0.5;entryY=1;entryDx=0;entryDy=0;" parent="1" target="dVdCL4T9mxgboT9Tn8U4-3" edge="1">
          <mxGeometry width="50" height="50" relative="1" as="geometry">
            <mxPoint x="457" y="1172" as="sourcePoint" />
            <mxPoint x="436.5" y="270" as="targetPoint" />
          </mxGeometry>
        </mxCell>
        <mxCell id="dVdCL4T9mxgboT9Tn8U4-5" value="user" style="shape=umlActor;verticalLabelPosition=bottom;verticalAlign=top;html=1;outlineConnect=0;fontStyle=1" parent="1" vertex="1">
          <mxGeometry x="1146" y="220" width="30" height="60" as="geometry" />
        </mxCell>
        <mxCell id="dVdCL4T9mxgboT9Tn8U4-6" value="LED" style="rounded=1;whiteSpace=wrap;html=1;fontStyle=1" parent="1" vertex="1">
          <mxGeometry x="1266" y="230" width="120" height="40" as="geometry" />
        </mxCell>
        <mxCell id="dVdCL4T9mxgboT9Tn8U4-7" value="" style="endArrow=none;html=1;rounded=0;entryX=0.5;entryY=1;entryDx=0;entryDy=0;" parent="1" target="dVdCL4T9mxgboT9Tn8U4-6" edge="1">
          <mxGeometry width="50" height="50" relative="1" as="geometry">
            <mxPoint x="1326" y="1470" as="sourcePoint" />
            <mxPoint x="1305.5" y="940" as="targetPoint" />
          </mxGeometry>
        </mxCell>
        <mxCell id="dVdCL4T9mxgboT9Tn8U4-8" value="UART" style="rounded=1;whiteSpace=wrap;html=1;fontStyle=1" parent="1" vertex="1">
          <mxGeometry x="1433" y="230" width="120" height="40" as="geometry" />
        </mxCell>
        <mxCell id="dVdCL4T9mxgboT9Tn8U4-9" value="&lt;h1&gt;&lt;font style=&quot;font-size: 18px;&quot;&gt;Mode Standard :&lt;/font&gt;&lt;/h1&gt;" style="text;html=1;strokeColor=none;fillColor=none;spacing=5;spacingTop=-20;whiteSpace=wrap;overflow=hidden;rounded=0;" parent="1" vertex="1">
          <mxGeometry x="107" y="160" width="190" height="40" as="geometry" />
        </mxCell>
        <mxCell id="dVdCL4T9mxgboT9Tn8U4-10" value="&lt;h1&gt;&lt;font style=&quot;font-size: 18px;&quot;&gt;Mode Configuration :&lt;/font&gt;&lt;/h1&gt;" style="text;html=1;strokeColor=none;fillColor=none;spacing=5;spacingTop=-20;whiteSpace=wrap;overflow=hidden;rounded=0;" parent="1" vertex="1">
          <mxGeometry x="1140" y="160" width="190" height="40" as="geometry" />
        </mxCell>
        <mxCell id="dVdCL4T9mxgboT9Tn8U4-11" value="&lt;b&gt;Carte SD&lt;/b&gt;" style="rounded=1;whiteSpace=wrap;html=1;" parent="1" vertex="1">
          <mxGeometry x="567" y="230" width="120" height="40" as="geometry" />
        </mxCell>
        <mxCell id="dVdCL4T9mxgboT9Tn8U4-12" value="" style="endArrow=none;html=1;rounded=0;" parent="1" edge="1">
          <mxGeometry width="50" height="50" relative="1" as="geometry">
            <mxPoint x="627" y="1173" as="sourcePoint" />
            <mxPoint x="627" y="270" as="targetPoint" />
          </mxGeometry>
        </mxCell>
        <mxCell id="dVdCL4T9mxgboT9Tn8U4-13" value="&lt;b&gt;Led&lt;/b&gt;" style="rounded=1;whiteSpace=wrap;html=1;" parent="1" vertex="1">
          <mxGeometry x="227" y="230" width="120" height="40" as="geometry" />
        </mxCell>
        <mxCell id="dVdCL4T9mxgboT9Tn8U4-14" value="" style="endArrow=none;html=1;rounded=0;" parent="1" edge="1">
          <mxGeometry width="50" height="50" relative="1" as="geometry">
            <mxPoint x="286" y="1177" as="sourcePoint" />
            <mxPoint x="285.75" y="270" as="targetPoint" />
          </mxGeometry>
        </mxCell>
        <mxCell id="dVdCL4T9mxgboT9Tn8U4-15" value="&lt;b&gt;Capteur&lt;/b&gt;" style="rounded=1;whiteSpace=wrap;html=1;" parent="1" vertex="1">
          <mxGeometry x="737" y="230" width="120" height="40" as="geometry" />
        </mxCell>
        <mxCell id="dVdCL4T9mxgboT9Tn8U4-16" value="" style="endArrow=none;html=1;rounded=0;" parent="1" edge="1">
          <mxGeometry width="50" height="50" relative="1" as="geometry">
            <mxPoint x="796" y="1174" as="sourcePoint" />
            <mxPoint x="795.75" y="270" as="targetPoint" />
          </mxGeometry>
        </mxCell>
        <mxCell id="dVdCL4T9mxgboT9Tn8U4-17" value="" style="endArrow=classic;html=1;rounded=0;" parent="1" edge="1">
          <mxGeometry width="50" height="50" relative="1" as="geometry">
            <mxPoint x="286" y="340" as="sourcePoint" />
            <mxPoint x="287" y="380" as="targetPoint" />
            <Array as="points">
              <mxPoint x="247" y="340" />
              <mxPoint x="247" y="380" />
            </Array>
          </mxGeometry>
        </mxCell>
        <mxCell id="dVdCL4T9mxgboT9Tn8U4-18" value="Allumage LED verte" style="edgeLabel;html=1;align=center;verticalAlign=middle;resizable=0;points=[];" parent="dVdCL4T9mxgboT9Tn8U4-17" vertex="1" connectable="0">
          <mxGeometry x="0.1106" relative="1" as="geometry">
            <mxPoint x="-30" y="-8" as="offset" />
          </mxGeometry>
        </mxCell>
        <mxCell id="dVdCL4T9mxgboT9Tn8U4-19" value="" style="endArrow=classic;html=1;rounded=0;" parent="1" edge="1">
          <mxGeometry width="50" height="50" relative="1" as="geometry">
            <mxPoint x="457" y="310" as="sourcePoint" />
            <mxPoint x="287" y="310" as="targetPoint" />
          </mxGeometry>
        </mxCell>
        <mxCell id="dVdCL4T9mxgboT9Tn8U4-20" value="Allumage" style="edgeLabel;html=1;align=center;verticalAlign=middle;resizable=0;points=[];" parent="dVdCL4T9mxgboT9Tn8U4-19" vertex="1" connectable="0">
          <mxGeometry x="0.0249" y="5" relative="1" as="geometry">
            <mxPoint x="-3" y="-15" as="offset" />
          </mxGeometry>
        </mxCell>
        <mxCell id="dVdCL4T9mxgboT9Tn8U4-21" value="" style="endArrow=classic;html=1;rounded=0;" parent="1" edge="1">
          <mxGeometry width="50" height="50" relative="1" as="geometry">
            <mxPoint x="797" y="440" as="sourcePoint" />
            <mxPoint x="457" y="440" as="targetPoint" />
          </mxGeometry>
        </mxCell>
        <mxCell id="dVdCL4T9mxgboT9Tn8U4-22" value="recupuration données" style="edgeLabel;html=1;align=center;verticalAlign=middle;resizable=0;points=[];" parent="dVdCL4T9mxgboT9Tn8U4-21" vertex="1" connectable="0">
          <mxGeometry x="-0.151" y="3" relative="1" as="geometry">
            <mxPoint y="-13" as="offset" />
          </mxGeometry>
        </mxCell>
        <mxCell id="dVdCL4T9mxgboT9Tn8U4-23" value="" style="endArrow=classic;html=1;rounded=0;" parent="1" edge="1">
          <mxGeometry width="50" height="50" relative="1" as="geometry">
            <mxPoint x="457" y="687" as="sourcePoint" />
            <mxPoint x="627" y="687" as="targetPoint" />
          </mxGeometry>
        </mxCell>
        <mxCell id="dVdCL4T9mxgboT9Tn8U4-24" value="Création fichier :&quot;ANNEEMOISJOUR_n+1.log&quot;&amp;nbsp;" style="edgeLabel;html=1;align=center;verticalAlign=middle;resizable=0;points=[];" parent="dVdCL4T9mxgboT9Tn8U4-23" vertex="1" connectable="0">
          <mxGeometry x="-0.5355" y="-4" relative="1" as="geometry">
            <mxPoint x="51" y="-14" as="offset" />
          </mxGeometry>
        </mxCell>
        <mxCell id="dVdCL4T9mxgboT9Tn8U4-25" value="&lt;b&gt;ALT &lt;/b&gt;: FICHIER DISPONIBLE (2KO)" style="shape=umlFrame;whiteSpace=wrap;html=1;pointerEvents=0;width=170;height=30;fillColor=none;" parent="1" vertex="1">
          <mxGeometry x="112" y="489" width="725" height="132" as="geometry" />
        </mxCell>
        <mxCell id="dVdCL4T9mxgboT9Tn8U4-26" value="" style="endArrow=classic;html=1;rounded=0;" parent="1" edge="1">
          <mxGeometry width="50" height="50" relative="1" as="geometry">
            <mxPoint x="457" y="731.5699999999999" as="sourcePoint" />
            <mxPoint x="627" y="731.5699999999999" as="targetPoint" />
          </mxGeometry>
        </mxCell>
        <mxCell id="dVdCL4T9mxgboT9Tn8U4-27" value="enregistrer données" style="edgeLabel;html=1;align=center;verticalAlign=middle;resizable=0;points=[];" parent="dVdCL4T9mxgboT9Tn8U4-26" vertex="1" connectable="0">
          <mxGeometry x="-0.0742" y="-3" relative="1" as="geometry">
            <mxPoint x="12" y="-18" as="offset" />
          </mxGeometry>
        </mxCell>
        <mxCell id="dVdCL4T9mxgboT9Tn8U4-28" value="" style="endArrow=classic;html=1;rounded=0;" parent="1" edge="1">
          <mxGeometry width="50" height="50" relative="1" as="geometry">
            <mxPoint x="456" y="757" as="sourcePoint" />
            <mxPoint x="457" y="797" as="targetPoint" />
            <Array as="points">
              <mxPoint x="417" y="757" />
              <mxPoint x="417" y="797" />
            </Array>
          </mxGeometry>
        </mxCell>
        <mxCell id="dVdCL4T9mxgboT9Tn8U4-29" value="Attendre 10 minutes" style="edgeLabel;html=1;align=center;verticalAlign=middle;resizable=0;points=[];" parent="dVdCL4T9mxgboT9Tn8U4-28" vertex="1" connectable="0">
          <mxGeometry x="0.1106" relative="1" as="geometry">
            <mxPoint x="-30" y="-8" as="offset" />
          </mxGeometry>
        </mxCell>
        <mxCell id="dVdCL4T9mxgboT9Tn8U4-30" value="&lt;b&gt;ALT &lt;/b&gt;: FICHIER PLEIN (2KO)" style="shape=umlFrame;whiteSpace=wrap;html=1;pointerEvents=0;width=170;height=30;fillColor=none;" parent="1" vertex="1">
          <mxGeometry x="112" y="648" width="725" height="172" as="geometry" />
        </mxCell>
        <mxCell id="dVdCL4T9mxgboT9Tn8U4-31" value="" style="endArrow=classic;html=1;rounded=0;" parent="1" edge="1">
          <mxGeometry width="50" height="50" relative="1" as="geometry">
            <mxPoint x="457" y="527" as="sourcePoint" />
            <mxPoint x="627" y="527" as="targetPoint" />
          </mxGeometry>
        </mxCell>
        <mxCell id="dVdCL4T9mxgboT9Tn8U4-32" value="Enregistrement données dans file &quot;ANNEEMOISJOUR_n.log&quot;&amp;nbsp;" style="edgeLabel;html=1;align=center;verticalAlign=middle;resizable=0;points=[];" parent="dVdCL4T9mxgboT9Tn8U4-31" vertex="1" connectable="0">
          <mxGeometry x="-0.5355" y="-4" relative="1" as="geometry">
            <mxPoint x="51" y="-14" as="offset" />
          </mxGeometry>
        </mxCell>
        <mxCell id="dVdCL4T9mxgboT9Tn8U4-33" value="" style="endArrow=classic;html=1;rounded=0;" parent="1" edge="1">
          <mxGeometry width="50" height="50" relative="1" as="geometry">
            <mxPoint x="456" y="556" as="sourcePoint" />
            <mxPoint x="457" y="596" as="targetPoint" />
            <Array as="points">
              <mxPoint x="417" y="556" />
              <mxPoint x="417" y="596" />
            </Array>
          </mxGeometry>
        </mxCell>
        <mxCell id="dVdCL4T9mxgboT9Tn8U4-34" value="Attendre 10 minutes" style="edgeLabel;html=1;align=center;verticalAlign=middle;resizable=0;points=[];" parent="dVdCL4T9mxgboT9Tn8U4-33" vertex="1" connectable="0">
          <mxGeometry x="0.1106" relative="1" as="geometry">
            <mxPoint x="-30" y="-8" as="offset" />
          </mxGeometry>
        </mxCell>
        <mxCell id="dVdCL4T9mxgboT9Tn8U4-35" value="&lt;b&gt;ALT &lt;/b&gt;: CAPTEUR SANS REPONSE&amp;nbsp;" style="shape=umlFrame;whiteSpace=wrap;html=1;pointerEvents=0;width=163;height=38;fillColor=none;" parent="1" vertex="1">
          <mxGeometry x="89" y="885" width="790" height="227" as="geometry" />
        </mxCell>
        <mxCell id="dVdCL4T9mxgboT9Tn8U4-36" value="Arduino" style="rounded=1;whiteSpace=wrap;html=1;fontStyle=1" parent="1" vertex="1">
          <mxGeometry x="1760" y="230" width="120" height="40" as="geometry" />
        </mxCell>
        <mxCell id="dVdCL4T9mxgboT9Tn8U4-37" value="Carte SD" style="rounded=1;whiteSpace=wrap;html=1;fontStyle=1" parent="1" vertex="1">
          <mxGeometry x="2094" y="230" width="120" height="40" as="geometry" />
        </mxCell>
        <mxCell id="dVdCL4T9mxgboT9Tn8U4-38" value="Capteur" style="rounded=1;whiteSpace=wrap;html=1;fontStyle=1" parent="1" vertex="1">
          <mxGeometry x="1927" y="230" width="120" height="40" as="geometry" />
        </mxCell>
        <mxCell id="dVdCL4T9mxgboT9Tn8U4-40" value="&lt;h1&gt;&lt;font style=&quot;font-size: 18px;&quot;&gt;Mode Maintenance :&lt;/font&gt;&lt;/h1&gt;" style="text;html=1;strokeColor=none;fillColor=none;spacing=5;spacingTop=-20;whiteSpace=wrap;overflow=hidden;rounded=0;" parent="1" vertex="1">
          <mxGeometry x="112" y="1680" width="190" height="40" as="geometry" />
        </mxCell>
        <mxCell id="dVdCL4T9mxgboT9Tn8U4-41" value="Carte SD" style="rounded=1;whiteSpace=wrap;html=1;fontStyle=1" parent="1" vertex="1">
          <mxGeometry x="262" y="1830" width="120" height="40" as="geometry" />
        </mxCell>
        <mxCell id="dVdCL4T9mxgboT9Tn8U4-42" value="user" style="shape=umlActor;verticalLabelPosition=bottom;verticalAlign=top;html=1;outlineConnect=0;fontStyle=1" parent="1" vertex="1">
          <mxGeometry x="140" y="1820" width="30" height="60" as="geometry" />
        </mxCell>
        <mxCell id="dVdCL4T9mxgboT9Tn8U4-43" value="" style="endArrow=none;html=1;rounded=0;" parent="1" edge="1">
          <mxGeometry width="50" height="50" relative="1" as="geometry">
            <mxPoint x="317" y="2330" as="sourcePoint" />
            <mxPoint x="321.75" y="1870" as="targetPoint" />
          </mxGeometry>
        </mxCell>
        <mxCell id="dVdCL4T9mxgboT9Tn8U4-44" value="" style="endArrow=none;html=1;rounded=0;" parent="1" source="dVdCL4T9mxgboT9Tn8U4-46" edge="1">
          <mxGeometry width="50" height="50" relative="1" as="geometry">
            <mxPoint x="496.25" y="3070" as="sourcePoint" />
            <mxPoint x="495.75" y="1870" as="targetPoint" />
          </mxGeometry>
        </mxCell>
        <mxCell id="dVdCL4T9mxgboT9Tn8U4-45" value="" style="endArrow=none;html=1;rounded=0;" parent="1" target="dVdCL4T9mxgboT9Tn8U4-42" edge="1">
          <mxGeometry width="50" height="50" relative="1" as="geometry">
            <mxPoint x="157" y="2330" as="sourcePoint" />
            <mxPoint x="154.75" y="1885" as="targetPoint" />
          </mxGeometry>
        </mxCell>
        <mxCell id="dVdCL4T9mxgboT9Tn8U4-46" value="Arduino" style="rounded=1;whiteSpace=wrap;html=1;fontStyle=1" parent="1" vertex="1">
          <mxGeometry x="435" y="1830" width="120" height="40" as="geometry" />
        </mxCell>
        <mxCell id="dVdCL4T9mxgboT9Tn8U4-47" value="" style="endArrow=classic;html=1;rounded=0;" parent="1" edge="1">
          <mxGeometry width="50" height="50" relative="1" as="geometry">
            <mxPoint x="492" y="1990" as="sourcePoint" />
            <mxPoint x="319" y="1990" as="targetPoint" />
          </mxGeometry>
        </mxCell>
        <mxCell id="dVdCL4T9mxgboT9Tn8U4-48" value="Arrêt transmission données" style="edgeLabel;html=1;align=center;verticalAlign=middle;resizable=0;points=[];" parent="dVdCL4T9mxgboT9Tn8U4-47" vertex="1" connectable="0">
          <mxGeometry x="0.2353" y="3" relative="1" as="geometry">
            <mxPoint x="32" y="-13" as="offset" />
          </mxGeometry>
        </mxCell>
        <mxCell id="dVdCL4T9mxgboT9Tn8U4-49" value="" style="endArrow=classic;html=1;rounded=0;" parent="1" edge="1">
          <mxGeometry width="50" height="50" relative="1" as="geometry">
            <mxPoint x="317" y="2080" as="sourcePoint" />
            <mxPoint x="327" y="2141" as="targetPoint" />
            <Array as="points">
              <mxPoint x="367" y="2080" />
              <mxPoint x="367" y="2141" />
            </Array>
          </mxGeometry>
        </mxCell>
        <mxCell id="dVdCL4T9mxgboT9Tn8U4-50" value="Carte SD prête à être retirée&amp;nbsp;" style="edgeLabel;html=1;align=center;verticalAlign=middle;resizable=0;points=[];" parent="dVdCL4T9mxgboT9Tn8U4-49" vertex="1" connectable="0">
          <mxGeometry x="0.1565" y="3" relative="1" as="geometry">
            <mxPoint x="37" y="-6" as="offset" />
          </mxGeometry>
        </mxCell>
        <mxCell id="dVdCL4T9mxgboT9Tn8U4-51" value="&lt;h1&gt;&lt;font style=&quot;font-size: 18px;&quot;&gt;Mode Economique :&lt;/font&gt;&lt;/h1&gt;" style="text;html=1;strokeColor=none;fillColor=none;spacing=5;spacingTop=-20;whiteSpace=wrap;overflow=hidden;rounded=0;" parent="1" vertex="1">
          <mxGeometry x="1134.5" y="1690" width="190" height="40" as="geometry" />
        </mxCell>
        <mxCell id="dVdCL4T9mxgboT9Tn8U4-52" value="" style="endArrow=none;html=1;rounded=0;entryX=0.5;entryY=1;entryDx=0;entryDy=0;" parent="1" edge="1">
          <mxGeometry width="50" height="50" relative="1" as="geometry">
            <mxPoint x="1496" y="1470" as="sourcePoint" />
            <mxPoint x="1496" y="270" as="targetPoint" />
          </mxGeometry>
        </mxCell>
        <mxCell id="dVdCL4T9mxgboT9Tn8U4-53" value="" style="endArrow=none;html=1;rounded=0;entryX=0.5;entryY=1;entryDx=0;entryDy=0;" parent="1" edge="1">
          <mxGeometry width="50" height="50" relative="1" as="geometry">
            <mxPoint x="1817" y="1471" as="sourcePoint" />
            <mxPoint x="1823" y="270" as="targetPoint" />
          </mxGeometry>
        </mxCell>
        <mxCell id="dVdCL4T9mxgboT9Tn8U4-54" value="" style="endArrow=none;html=1;rounded=0;entryX=0.5;entryY=1;entryDx=0;entryDy=0;" parent="1" edge="1">
          <mxGeometry width="50" height="50" relative="1" as="geometry">
            <mxPoint x="1984" y="1470.7619512648807" as="sourcePoint" />
            <mxPoint x="1990" y="270" as="targetPoint" />
          </mxGeometry>
        </mxCell>
        <mxCell id="dVdCL4T9mxgboT9Tn8U4-55" value="" style="endArrow=none;html=1;rounded=0;entryX=0.5;entryY=1;entryDx=0;entryDy=0;" parent="1" edge="1">
          <mxGeometry width="50" height="50" relative="1" as="geometry">
            <mxPoint x="2157" y="1471" as="sourcePoint" />
            <mxPoint x="2157" y="270" as="targetPoint" />
          </mxGeometry>
        </mxCell>
        <mxCell id="dVdCL4T9mxgboT9Tn8U4-56" value="" style="endArrow=classic;html=1;rounded=0;" parent="1" edge="1">
          <mxGeometry width="50" height="50" relative="1" as="geometry">
            <mxPoint x="1500" y="360" as="sourcePoint" />
            <mxPoint x="1820" y="360" as="targetPoint" />
          </mxGeometry>
        </mxCell>
        <mxCell id="dVdCL4T9mxgboT9Tn8U4-57" value="envoi l&#39;information" style="edgeLabel;html=1;align=center;verticalAlign=middle;resizable=0;points=[];" parent="dVdCL4T9mxgboT9Tn8U4-56" vertex="1" connectable="0">
          <mxGeometry x="-0.0758" y="-3" relative="1" as="geometry">
            <mxPoint x="-5" y="-13" as="offset" />
          </mxGeometry>
        </mxCell>
        <mxCell id="dVdCL4T9mxgboT9Tn8U4-58" value="" style="endArrow=classic;html=1;rounded=0;" parent="1" edge="1">
          <mxGeometry width="50" height="50" relative="1" as="geometry">
            <mxPoint x="1820" y="430" as="sourcePoint" />
            <mxPoint x="1330" y="430" as="targetPoint" />
          </mxGeometry>
        </mxCell>
        <mxCell id="dVdCL4T9mxgboT9Tn8U4-59" value="allumage LED jaune" style="edgeLabel;html=1;align=center;verticalAlign=middle;resizable=0;points=[];" parent="dVdCL4T9mxgboT9Tn8U4-58" vertex="1" connectable="0">
          <mxGeometry x="0.1292" relative="1" as="geometry">
            <mxPoint x="10" y="-19" as="offset" />
          </mxGeometry>
        </mxCell>
        <mxCell id="dVdCL4T9mxgboT9Tn8U4-60" value="" style="endArrow=classic;html=1;rounded=0;" parent="1" edge="1">
          <mxGeometry width="50" height="50" relative="1" as="geometry">
            <mxPoint x="1830" y="380" as="sourcePoint" />
            <mxPoint x="1840" y="430" as="targetPoint" />
            <Array as="points">
              <mxPoint x="1890" y="380" />
              <mxPoint x="1890" y="430" />
            </Array>
          </mxGeometry>
        </mxCell>
        <mxCell id="dVdCL4T9mxgboT9Tn8U4-61" value="renvoi information" style="edgeLabel;html=1;align=center;verticalAlign=middle;resizable=0;points=[];" parent="dVdCL4T9mxgboT9Tn8U4-60" vertex="1" connectable="0">
          <mxGeometry x="-0.0299" relative="1" as="geometry">
            <mxPoint as="offset" />
          </mxGeometry>
        </mxCell>
        <mxCell id="dVdCL4T9mxgboT9Tn8U4-62" value="" style="endArrow=classic;html=1;rounded=0;" parent="1" edge="1">
          <mxGeometry width="50" height="50" relative="1" as="geometry">
            <mxPoint x="1830" y="490" as="sourcePoint" />
            <mxPoint x="1984" y="490" as="targetPoint" />
          </mxGeometry>
        </mxCell>
        <mxCell id="dVdCL4T9mxgboT9Tn8U4-63" value="Acquisition des données : desactivée" style="edgeLabel;html=1;align=center;verticalAlign=middle;resizable=0;points=[];" parent="dVdCL4T9mxgboT9Tn8U4-62" vertex="1" connectable="0">
          <mxGeometry x="0.0963" y="2" relative="1" as="geometry">
            <mxPoint y="-8" as="offset" />
          </mxGeometry>
        </mxCell>
        <mxCell id="dVdCL4T9mxgboT9Tn8U4-65" value="" style="endArrow=classic;html=1;rounded=0;" parent="1" edge="1">
          <mxGeometry width="50" height="50" relative="1" as="geometry">
            <mxPoint x="157" y="1930" as="sourcePoint" />
            <mxPoint x="497" y="1930" as="targetPoint" />
          </mxGeometry>
        </mxCell>
        <mxCell id="dVdCL4T9mxgboT9Tn8U4-66" value="Appui bouton rouge 5s" style="edgeLabel;html=1;align=center;verticalAlign=middle;resizable=0;points=[];" parent="dVdCL4T9mxgboT9Tn8U4-65" vertex="1" connectable="0">
          <mxGeometry x="-0.234" y="3" relative="1" as="geometry">
            <mxPoint x="35" y="-7" as="offset" />
          </mxGeometry>
        </mxCell>
        <mxCell id="dVdCL4T9mxgboT9Tn8U4-67" value="LED" style="rounded=1;whiteSpace=wrap;html=1;fontStyle=1" parent="1" vertex="1">
          <mxGeometry x="597" y="1830" width="120" height="40" as="geometry" />
        </mxCell>
        <mxCell id="dVdCL4T9mxgboT9Tn8U4-68" value="" style="endArrow=classic;html=1;rounded=0;" parent="1" edge="1">
          <mxGeometry width="50" height="50" relative="1" as="geometry">
            <mxPoint x="497" y="1970" as="sourcePoint" />
            <mxPoint x="657" y="1970" as="targetPoint" />
          </mxGeometry>
        </mxCell>
        <mxCell id="dVdCL4T9mxgboT9Tn8U4-69" value="Allumage LED orange" style="edgeLabel;html=1;align=center;verticalAlign=middle;resizable=0;points=[];" parent="dVdCL4T9mxgboT9Tn8U4-68" vertex="1" connectable="0">
          <mxGeometry x="0.3235" y="-4" relative="1" as="geometry">
            <mxPoint x="-26" y="-14" as="offset" />
          </mxGeometry>
        </mxCell>
        <mxCell id="dVdCL4T9mxgboT9Tn8U4-70" value="" style="endArrow=none;html=1;rounded=0;entryX=0.5;entryY=1;entryDx=0;entryDy=0;" parent="1" target="dVdCL4T9mxgboT9Tn8U4-46" edge="1">
          <mxGeometry width="50" height="50" relative="1" as="geometry">
            <mxPoint x="495" y="2330" as="sourcePoint" />
            <mxPoint x="527" y="2040" as="targetPoint" />
          </mxGeometry>
        </mxCell>
        <mxCell id="dVdCL4T9mxgboT9Tn8U4-71" value="" style="endArrow=none;html=1;rounded=0;entryX=0.5;entryY=1;entryDx=0;entryDy=0;" parent="1" target="dVdCL4T9mxgboT9Tn8U4-67" edge="1">
          <mxGeometry width="50" height="50" relative="1" as="geometry">
            <mxPoint x="657" y="2330" as="sourcePoint" />
            <mxPoint x="656.5700000000002" y="1880" as="targetPoint" />
          </mxGeometry>
        </mxCell>
        <mxCell id="dVdCL4T9mxgboT9Tn8U4-72" value="" style="endArrow=classic;html=1;rounded=0;" parent="1" edge="1">
          <mxGeometry width="50" height="50" relative="1" as="geometry">
            <mxPoint x="157" y="2030" as="sourcePoint" />
            <mxPoint x="817" y="2030" as="targetPoint" />
          </mxGeometry>
        </mxCell>
        <mxCell id="dVdCL4T9mxgboT9Tn8U4-73" value="Données consultables sur le port série" style="edgeLabel;html=1;align=center;verticalAlign=middle;resizable=0;points=[];" parent="dVdCL4T9mxgboT9Tn8U4-72" vertex="1" connectable="0">
          <mxGeometry x="0.6724" relative="1" as="geometry">
            <mxPoint x="-42" as="offset" />
          </mxGeometry>
        </mxCell>
        <mxCell id="dVdCL4T9mxgboT9Tn8U4-74" value="UART" style="rounded=1;whiteSpace=wrap;html=1;fontStyle=1" parent="1" vertex="1">
          <mxGeometry x="757" y="1830" width="120" height="40" as="geometry" />
        </mxCell>
        <mxCell id="dVdCL4T9mxgboT9Tn8U4-75" value="" style="endArrow=none;html=1;rounded=0;entryX=0.5;entryY=1;entryDx=0;entryDy=0;" parent="1" target="dVdCL4T9mxgboT9Tn8U4-74" edge="1">
          <mxGeometry width="50" height="50" relative="1" as="geometry">
            <mxPoint x="816.5700000000002" y="2340" as="sourcePoint" />
            <mxPoint x="816.5700000000002" y="1880" as="targetPoint" />
          </mxGeometry>
        </mxCell>
        <mxCell id="dVdCL4T9mxgboT9Tn8U4-77" value="UART" style="rounded=1;whiteSpace=wrap;html=1;fontStyle=1" parent="1" vertex="1">
          <mxGeometry x="1246.5" y="1840" width="120" height="40" as="geometry" />
        </mxCell>
        <mxCell id="dVdCL4T9mxgboT9Tn8U4-78" value="user" style="shape=umlActor;verticalLabelPosition=bottom;verticalAlign=top;html=1;outlineConnect=0;fontStyle=1" parent="1" vertex="1">
          <mxGeometry x="1124.5" y="1830" width="30" height="60" as="geometry" />
        </mxCell>
        <mxCell id="dVdCL4T9mxgboT9Tn8U4-79" value="" style="endArrow=none;html=1;rounded=0;" parent="1" edge="1">
          <mxGeometry width="50" height="50" relative="1" as="geometry">
            <mxPoint x="1301.5" y="2340" as="sourcePoint" />
            <mxPoint x="1306.25" y="1880" as="targetPoint" />
          </mxGeometry>
        </mxCell>
        <mxCell id="dVdCL4T9mxgboT9Tn8U4-80" value="" style="endArrow=none;html=1;rounded=0;" parent="1" source="dVdCL4T9mxgboT9Tn8U4-82" edge="1">
          <mxGeometry width="50" height="50" relative="1" as="geometry">
            <mxPoint x="1480.75" y="3080" as="sourcePoint" />
            <mxPoint x="1480.25" y="1880" as="targetPoint" />
          </mxGeometry>
        </mxCell>
        <mxCell id="dVdCL4T9mxgboT9Tn8U4-81" value="" style="endArrow=none;html=1;rounded=0;" parent="1" target="dVdCL4T9mxgboT9Tn8U4-78" edge="1">
          <mxGeometry width="50" height="50" relative="1" as="geometry">
            <mxPoint x="1141.5" y="2340" as="sourcePoint" />
            <mxPoint x="1139.25" y="1895" as="targetPoint" />
          </mxGeometry>
        </mxCell>
        <mxCell id="dVdCL4T9mxgboT9Tn8U4-82" value="Arduino" style="rounded=1;whiteSpace=wrap;html=1;fontStyle=1" parent="1" vertex="1">
          <mxGeometry x="1419.5" y="1840" width="120" height="40" as="geometry" />
        </mxCell>
        <mxCell id="dVdCL4T9mxgboT9Tn8U4-83" value="" style="endArrow=classic;html=1;rounded=0;" parent="1" edge="1">
          <mxGeometry width="50" height="50" relative="1" as="geometry">
            <mxPoint x="1141.5" y="1940" as="sourcePoint" />
            <mxPoint x="1304.5" y="1940" as="targetPoint" />
          </mxGeometry>
        </mxCell>
        <mxCell id="dVdCL4T9mxgboT9Tn8U4-84" value="Appui bouton rouge 5s" style="edgeLabel;html=1;align=center;verticalAlign=middle;resizable=0;points=[];" parent="dVdCL4T9mxgboT9Tn8U4-83" vertex="1" connectable="0">
          <mxGeometry x="-0.234" y="3" relative="1" as="geometry">
            <mxPoint x="26" y="-17" as="offset" />
          </mxGeometry>
        </mxCell>
        <mxCell id="dVdCL4T9mxgboT9Tn8U4-85" value="LED" style="rounded=1;whiteSpace=wrap;html=1;fontStyle=1" parent="1" vertex="1">
          <mxGeometry x="1581.5" y="1840" width="120" height="40" as="geometry" />
        </mxCell>
        <mxCell id="dVdCL4T9mxgboT9Tn8U4-86" value="" style="endArrow=classic;html=1;rounded=0;" parent="1" edge="1">
          <mxGeometry width="50" height="50" relative="1" as="geometry">
            <mxPoint x="1481.5" y="1980" as="sourcePoint" />
            <mxPoint x="1641.5" y="1980" as="targetPoint" />
          </mxGeometry>
        </mxCell>
        <mxCell id="dVdCL4T9mxgboT9Tn8U4-87" value="Allumage LED bleue" style="edgeLabel;html=1;align=center;verticalAlign=middle;resizable=0;points=[];" parent="dVdCL4T9mxgboT9Tn8U4-86" vertex="1" connectable="0">
          <mxGeometry x="0.3235" y="-4" relative="1" as="geometry">
            <mxPoint x="-26" y="-14" as="offset" />
          </mxGeometry>
        </mxCell>
        <mxCell id="dVdCL4T9mxgboT9Tn8U4-88" value="" style="endArrow=none;html=1;rounded=0;entryX=0.5;entryY=1;entryDx=0;entryDy=0;" parent="1" target="dVdCL4T9mxgboT9Tn8U4-82" edge="1">
          <mxGeometry width="50" height="50" relative="1" as="geometry">
            <mxPoint x="1479.5" y="2340" as="sourcePoint" />
            <mxPoint x="1511.5" y="2050" as="targetPoint" />
          </mxGeometry>
        </mxCell>
        <mxCell id="dVdCL4T9mxgboT9Tn8U4-89" value="" style="endArrow=none;html=1;rounded=0;entryX=0.5;entryY=1;entryDx=0;entryDy=0;" parent="1" target="dVdCL4T9mxgboT9Tn8U4-85" edge="1">
          <mxGeometry width="50" height="50" relative="1" as="geometry">
            <mxPoint x="1641.5" y="2340" as="sourcePoint" />
            <mxPoint x="1641.0700000000002" y="1890" as="targetPoint" />
          </mxGeometry>
        </mxCell>
        <mxCell id="dVdCL4T9mxgboT9Tn8U4-90" value="Capteurs" style="rounded=1;whiteSpace=wrap;html=1;fontStyle=1" parent="1" vertex="1">
          <mxGeometry x="1741.5" y="1840" width="120" height="40" as="geometry" />
        </mxCell>
        <mxCell id="dVdCL4T9mxgboT9Tn8U4-91" value="" style="endArrow=none;html=1;rounded=0;entryX=0.5;entryY=1;entryDx=0;entryDy=0;" parent="1" target="dVdCL4T9mxgboT9Tn8U4-90" edge="1">
          <mxGeometry width="50" height="50" relative="1" as="geometry">
            <mxPoint x="1801.0700000000002" y="2350" as="sourcePoint" />
            <mxPoint x="1801.0700000000002" y="1890" as="targetPoint" />
          </mxGeometry>
        </mxCell>
        <mxCell id="dVdCL4T9mxgboT9Tn8U4-92" value="" style="endArrow=classic;html=1;rounded=0;" parent="1" edge="1">
          <mxGeometry width="50" height="50" relative="1" as="geometry">
            <mxPoint x="1304.5" y="1960" as="sourcePoint" />
            <mxPoint x="1474.5" y="1960" as="targetPoint" />
          </mxGeometry>
        </mxCell>
        <mxCell id="dVdCL4T9mxgboT9Tn8U4-93" value="renvoie information" style="edgeLabel;html=1;align=center;verticalAlign=middle;resizable=0;points=[];" parent="dVdCL4T9mxgboT9Tn8U4-92" vertex="1" connectable="0">
          <mxGeometry x="0.1639" y="-4" relative="1" as="geometry">
            <mxPoint x="-25" y="-14" as="offset" />
          </mxGeometry>
        </mxCell>
        <mxCell id="dVdCL4T9mxgboT9Tn8U4-94" value="" style="endArrow=classic;html=1;rounded=0;" parent="1" edge="1">
          <mxGeometry width="50" height="50" relative="1" as="geometry">
            <mxPoint x="1474.5" y="2050" as="sourcePoint" />
            <mxPoint x="1804.5" y="2050" as="targetPoint" />
          </mxGeometry>
        </mxCell>
        <mxCell id="dVdCL4T9mxgboT9Tn8U4-95" value="Acquisition des données GPS = Une mesure sur deux" style="edgeLabel;html=1;align=center;verticalAlign=middle;resizable=0;points=[];" parent="dVdCL4T9mxgboT9Tn8U4-94" vertex="1" connectable="0">
          <mxGeometry x="-0.3982" y="2" relative="1" as="geometry">
            <mxPoint x="68" y="-8" as="offset" />
          </mxGeometry>
        </mxCell>
        <mxCell id="dVdCL4T9mxgboT9Tn8U4-96" value="" style="endArrow=classic;html=1;rounded=0;" parent="1" edge="1">
          <mxGeometry width="50" height="50" relative="1" as="geometry">
            <mxPoint x="1484.5" y="2089" as="sourcePoint" />
            <mxPoint x="1484.5" y="2150" as="targetPoint" />
            <Array as="points">
              <mxPoint x="1534.5" y="2089" />
              <mxPoint x="1534.5" y="2150" />
            </Array>
          </mxGeometry>
        </mxCell>
        <mxCell id="dVdCL4T9mxgboT9Tn8U4-97" value="Temps entre 2 mesures (LOG_INTERVAL) * 2" style="edgeLabel;html=1;align=center;verticalAlign=middle;resizable=0;points=[];" parent="dVdCL4T9mxgboT9Tn8U4-96" vertex="1" connectable="0">
          <mxGeometry x="0.1565" y="3" relative="1" as="geometry">
            <mxPoint x="37" y="-6" as="offset" />
          </mxGeometry>
        </mxCell>
        <mxCell id="dVdCL4T9mxgboT9Tn8U4-98" value="" style="endArrow=classic;html=1;rounded=0;" parent="1" edge="1">
          <mxGeometry width="50" height="50" relative="1" as="geometry">
            <mxPoint x="1165" y="360" as="sourcePoint" />
            <mxPoint x="1490" y="360" as="targetPoint" />
          </mxGeometry>
        </mxCell>
        <mxCell id="dVdCL4T9mxgboT9Tn8U4-99" value="Appui bouton rouge" style="edgeLabel;html=1;align=center;verticalAlign=middle;resizable=0;points=[];" parent="dVdCL4T9mxgboT9Tn8U4-98" vertex="1" connectable="0">
          <mxGeometry x="-0.0758" y="-3" relative="1" as="geometry">
            <mxPoint x="-5" y="-13" as="offset" />
          </mxGeometry>
        </mxCell>
        <mxCell id="dVdCL4T9mxgboT9Tn8U4-101" value="" style="endArrow=none;html=1;rounded=0;" parent="1" target="dVdCL4T9mxgboT9Tn8U4-5" edge="1">
          <mxGeometry width="50" height="50" relative="1" as="geometry">
            <mxPoint x="1161" y="1470" as="sourcePoint" />
            <mxPoint x="1160" y="1080" as="targetPoint" />
          </mxGeometry>
        </mxCell>
        <mxCell id="RHxViGe_Snfl0gyFaGfC-1" value="" style="endArrow=classic;html=1;rounded=0;" parent="1" edge="1">
          <mxGeometry width="50" height="50" relative="1" as="geometry">
            <mxPoint x="1820.761951264881" y="570" as="sourcePoint" />
            <mxPoint x="1500" y="570" as="targetPoint" />
          </mxGeometry>
        </mxCell>
        <mxCell id="RHxViGe_Snfl0gyFaGfC-6" value="LOG_INTERVALL=10 -&amp;gt; définition de l’intervalle &lt;br&gt;entre 2 mesures, 10 minutes par défaut." style="edgeLabel;html=1;align=center;verticalAlign=middle;resizable=0;points=[];" parent="RHxViGe_Snfl0gyFaGfC-1" vertex="1" connectable="0">
          <mxGeometry x="-0.0736" y="1" relative="1" as="geometry">
            <mxPoint y="-21" as="offset" />
          </mxGeometry>
        </mxCell>
        <mxCell id="RHxViGe_Snfl0gyFaGfC-7" value="" style="endArrow=classic;html=1;rounded=0;" parent="1" edge="1">
          <mxGeometry width="50" height="50" relative="1" as="geometry">
            <mxPoint x="1820" y="630" as="sourcePoint" />
            <mxPoint x="1500" y="630" as="targetPoint" />
          </mxGeometry>
        </mxCell>
        <mxCell id="RHxViGe_Snfl0gyFaGfC-8" value="&lt;div&gt;FILE_MAX_SIZE=4096 -&amp;gt; définition de la taille maximale (en octets)&amp;nbsp;&lt;/div&gt;&lt;div&gt;d&#39;un fichier de log, une taille de 4ko provoque son archivage.&lt;/div&gt;" style="edgeLabel;html=1;align=center;verticalAlign=middle;resizable=0;points=[];" parent="RHxViGe_Snfl0gyFaGfC-7" vertex="1" connectable="0">
          <mxGeometry x="-0.1381" y="1" relative="1" as="geometry">
            <mxPoint x="-22" y="-31" as="offset" />
          </mxGeometry>
        </mxCell>
        <mxCell id="RHxViGe_Snfl0gyFaGfC-9" value="" style="endArrow=classic;html=1;rounded=0;" parent="1" edge="1">
          <mxGeometry width="50" height="50" relative="1" as="geometry">
            <mxPoint x="1820" y="690" as="sourcePoint" />
            <mxPoint x="1500" y="690" as="targetPoint" />
          </mxGeometry>
        </mxCell>
        <mxCell id="RHxViGe_Snfl0gyFaGfC-10" value="RESET -&amp;gt; réinitialisation de l’ensemble des paramètres &lt;br&gt;à leurs valeurs par défaut." style="edgeLabel;html=1;align=center;verticalAlign=middle;resizable=0;points=[];" parent="RHxViGe_Snfl0gyFaGfC-9" vertex="1" connectable="0">
          <mxGeometry x="-0.2262" y="2" relative="1" as="geometry">
            <mxPoint x="-26" y="-22" as="offset" />
          </mxGeometry>
        </mxCell>
        <mxCell id="RHxViGe_Snfl0gyFaGfC-11" value="" style="endArrow=classic;html=1;rounded=0;" parent="1" edge="1">
          <mxGeometry width="50" height="50" relative="1" as="geometry">
            <mxPoint x="1820" y="747.02" as="sourcePoint" />
            <mxPoint x="1500" y="747.02" as="targetPoint" />
          </mxGeometry>
        </mxCell>
        <mxCell id="RHxViGe_Snfl0gyFaGfC-12" value="VERSION -&amp;gt; affiche la version du programme et un &lt;br&gt;numéro de lot (permet de tracer la production)" style="edgeLabel;html=1;align=center;verticalAlign=middle;resizable=0;points=[];" parent="RHxViGe_Snfl0gyFaGfC-11" vertex="1" connectable="0">
          <mxGeometry x="0.1548" relative="1" as="geometry">
            <mxPoint x="35" y="-20" as="offset" />
          </mxGeometry>
        </mxCell>
        <mxCell id="RHxViGe_Snfl0gyFaGfC-13" value="&lt;b&gt;LOOP : CAPTEURS&lt;/b&gt;" style="shape=umlFrame;whiteSpace=wrap;html=1;pointerEvents=0;width=100;height=33;" parent="1" vertex="1">
          <mxGeometry x="1140" y="797" width="960" height="143" as="geometry" />
        </mxCell>
        <mxCell id="RHxViGe_Snfl0gyFaGfC-14" value="" style="endArrow=classic;html=1;rounded=0;" parent="1" edge="1">
          <mxGeometry width="50" height="50" relative="1" as="geometry">
            <mxPoint x="1820" y="880" as="sourcePoint" />
            <mxPoint x="1500" y="880" as="targetPoint" />
          </mxGeometry>
        </mxCell>
        <mxCell id="RHxViGe_Snfl0gyFaGfC-16" value="&lt;div&gt;Tape Commande&lt;/div&gt;" style="edgeLabel;html=1;align=center;verticalAlign=middle;resizable=0;points=[];" parent="RHxViGe_Snfl0gyFaGfC-14" vertex="1" connectable="0">
          <mxGeometry x="-0.0216" y="-2" relative="1" as="geometry">
            <mxPoint y="-38" as="offset" />
          </mxGeometry>
        </mxCell>
        <mxCell id="RHxViGe_Snfl0gyFaGfC-18" value="&lt;div&gt;LUMIN {0,1}&amp;nbsp;&lt;/div&gt;&lt;div&gt;1 définition de l’activation (1) /&lt;/div&gt;&lt;div&gt;désactivation (0) du capteur de&lt;/div&gt;&lt;div&gt;luminosité&lt;/div&gt;&lt;div&gt;LUMIN=1&lt;/div&gt;&lt;div&gt;&lt;br&gt;&lt;/div&gt;&lt;div&gt;LUMIN_LOW {0-1023&amp;nbsp;&lt;/div&gt;&lt;div&gt;255 définition de la valeur en&lt;/div&gt;&lt;div&gt;dessous de laquelle la luminosité&lt;/div&gt;&lt;div&gt;est considérée comme “faible”&lt;/div&gt;&lt;div&gt;LUMIN_LOW=200&lt;/div&gt;&lt;div&gt;&lt;br&gt;&lt;/div&gt;&lt;div&gt;LUMIN_HIGH {0-1023}&amp;nbsp;&lt;/div&gt;&lt;div&gt;768 définition de la valeur au-dessus&lt;/div&gt;&lt;div&gt;de laquelle la luminosité est&lt;/div&gt;&lt;div&gt;considérée comme “forte”&lt;/div&gt;&lt;div&gt;LUMIN_HIGH=700&lt;/div&gt;&lt;div&gt;&lt;br&gt;&lt;/div&gt;&lt;div&gt;TEMP_AIR {0,1}&amp;nbsp;&lt;/div&gt;&lt;div&gt;1 définition de l’activation (1) /&lt;/div&gt;&lt;div&gt;désactivation (0) du capteur de&lt;/div&gt;&lt;div&gt;température de l&#39;air&lt;/div&gt;&lt;div&gt;TEMP_AIR=0&lt;/div&gt;&lt;div&gt;&lt;br&gt;&lt;/div&gt;&lt;div&gt;MIN_TEMP_A&lt;/div&gt;&lt;div&gt;IR&lt;/div&gt;&lt;div&gt;{-40-85}&amp;nbsp;&lt;/div&gt;&lt;div&gt;-10 définition du seuil de&lt;/div&gt;&lt;div&gt;température de l&#39;air (en °C) en&lt;/div&gt;&lt;div&gt;dessous duquel le capteur se&lt;/div&gt;&lt;div&gt;mettra en erreur.&lt;/div&gt;&lt;div&gt;MIN_TEMP_AIR=-5&lt;/div&gt;&lt;div&gt;&lt;br&gt;&lt;/div&gt;&lt;div&gt;MAX_TEMP_&lt;/div&gt;&lt;div&gt;AIR&lt;/div&gt;&lt;div&gt;{-40-85}&amp;nbsp;&lt;/div&gt;&lt;div&gt;60 définition du seuil de&lt;/div&gt;&lt;div&gt;température de l&#39;air (en °C) au-&lt;/div&gt;&lt;div&gt;dessus duquel le capteur se&lt;/div&gt;&lt;div&gt;mettra en erreur.&lt;/div&gt;&lt;div&gt;MAX_TEMP_AIR=30&lt;/div&gt;&lt;div&gt;&lt;br&gt;&lt;/div&gt;&lt;div&gt;HYGR {0,1}&amp;nbsp;&lt;/div&gt;&lt;div&gt;1 définition de l’activation (1) /&lt;/div&gt;&lt;div&gt;désactivation (0) du capteur&lt;/div&gt;&lt;div&gt;d’hygrométrie&lt;/div&gt;&lt;div&gt;HYGR=1&lt;/div&gt;&lt;div&gt;&lt;br&gt;&lt;/div&gt;&lt;div&gt;HYGR_MINT {-40-85}&amp;nbsp;&lt;/div&gt;&lt;div&gt;0 définition de la température en&lt;/div&gt;&lt;div&gt;dessous de laquelle les mesures&lt;/div&gt;&lt;div&gt;d’hygrométrie ne seront pas&lt;/div&gt;&lt;div&gt;prises en compte.&lt;/div&gt;&lt;div&gt;HYGR_MINT=0&lt;/div&gt;&lt;div&gt;&lt;br&gt;&lt;/div&gt;&lt;div&gt;HYGR_MAXT {-40-85}&amp;nbsp;&lt;/div&gt;&lt;div&gt;50 définition de la température au-&lt;/div&gt;&lt;div&gt;dessus de laquelle les mesures&lt;/div&gt;&lt;div&gt;d’hygrométrie ne seront pas&lt;/div&gt;&lt;div&gt;prises en compte.&lt;/div&gt;&lt;div&gt;HYGR_MAXT=50&lt;/div&gt;&lt;div&gt;&lt;br&gt;&lt;/div&gt;" style="shape=note;whiteSpace=wrap;html=1;backgroundOutline=1;darkOpacity=0.05;fillColor=none;" parent="1" vertex="1">
          <mxGeometry x="2250" y="390" width="360" height="951" as="geometry" />
        </mxCell>
        <mxCell id="RHxViGe_Snfl0gyFaGfC-19" value="" style="endArrow=none;dashed=1;html=1;rounded=0;exitX=0;exitY=0.5;exitDx=0;exitDy=0;exitPerimeter=0;entryX=1.008;entryY=0.374;entryDx=0;entryDy=0;entryPerimeter=0;" parent="1" source="RHxViGe_Snfl0gyFaGfC-18" target="RHxViGe_Snfl0gyFaGfC-13" edge="1">
          <mxGeometry width="50" height="50" relative="1" as="geometry">
            <mxPoint x="1900" y="860" as="sourcePoint" />
            <mxPoint x="1950" y="810" as="targetPoint" />
          </mxGeometry>
        </mxCell>
        <mxCell id="RHxViGe_Snfl0gyFaGfC-20" value="&lt;b&gt;LOOP : TIME&lt;/b&gt;" style="shape=umlFrame;whiteSpace=wrap;html=1;pointerEvents=0;width=100;height=33;" parent="1" vertex="1">
          <mxGeometry x="1140" y="970" width="960" height="240" as="geometry" />
        </mxCell>
        <mxCell id="IOhGfafyrwbvTF1-Rxzx-1" value="" style="endArrow=classic;html=1;rounded=0;" parent="1" edge="1">
          <mxGeometry width="50" height="50" relative="1" as="geometry">
            <mxPoint x="459" y="1021" as="sourcePoint" />
            <mxPoint x="628" y="1021" as="targetPoint" />
          </mxGeometry>
        </mxCell>
        <mxCell id="IOhGfafyrwbvTF1-Rxzx-2" value="Enregistrement &quot;NA&quot; dans fichier &quot;ANNEEMOISJOUR_n.log&quot;" style="edgeLabel;html=1;align=center;verticalAlign=middle;resizable=0;points=[];" parent="IOhGfafyrwbvTF1-Rxzx-1" vertex="1" connectable="0">
          <mxGeometry x="0.2576" y="4" relative="1" as="geometry">
            <mxPoint x="-23" y="-14" as="offset" />
          </mxGeometry>
        </mxCell>
        <mxCell id="IOhGfafyrwbvTF1-Rxzx-6" value="" style="endArrow=classic;html=1;rounded=0;" parent="1" edge="1">
          <mxGeometry width="50" height="50" relative="1" as="geometry">
            <mxPoint x="458" y="1051" as="sourcePoint" />
            <mxPoint x="459" y="1091" as="targetPoint" />
            <Array as="points">
              <mxPoint x="419" y="1051" />
              <mxPoint x="419" y="1091" />
            </Array>
          </mxGeometry>
        </mxCell>
        <mxCell id="IOhGfafyrwbvTF1-Rxzx-7" value="Attendre 10 minutes" style="edgeLabel;html=1;align=center;verticalAlign=middle;resizable=0;points=[];" parent="IOhGfafyrwbvTF1-Rxzx-6" vertex="1" connectable="0">
          <mxGeometry x="0.1106" relative="1" as="geometry">
            <mxPoint x="-30" y="-8" as="offset" />
          </mxGeometry>
        </mxCell>
        <mxCell id="IOhGfafyrwbvTF1-Rxzx-8" value="&lt;h1&gt;&lt;font style=&quot;font-size: 18px;&quot;&gt;Erreurs :&lt;/font&gt;&lt;/h1&gt;&lt;div&gt;&lt;font style=&quot;font-size: 18px;&quot;&gt;&lt;br&gt;&lt;/font&gt;&lt;/div&gt;&lt;div&gt;&lt;font style=&quot;font-size: 12px;&quot;&gt;&lt;b style=&quot;&quot;&gt;(S&#39;appliquent sur tous les modes de fonctionnement)&lt;/b&gt;&lt;/font&gt;&lt;/div&gt;" style="text;html=1;strokeColor=none;fillColor=none;spacing=5;spacingTop=-20;whiteSpace=wrap;overflow=hidden;rounded=0;" parent="1" vertex="1">
          <mxGeometry x="2808" y="151" width="190" height="137" as="geometry" />
        </mxCell>
        <mxCell id="IOhGfafyrwbvTF1-Rxzx-14" value="Arduino" style="rounded=1;whiteSpace=wrap;html=1;fontStyle=1" parent="1" vertex="1">
          <mxGeometry x="2988" y="270" width="120" height="40" as="geometry" />
        </mxCell>
        <mxCell id="IOhGfafyrwbvTF1-Rxzx-15" value="" style="endArrow=none;html=1;rounded=0;entryX=0.5;entryY=1;entryDx=0;entryDy=0;" parent="1" edge="1">
          <mxGeometry width="50" height="50" relative="1" as="geometry">
            <mxPoint x="3047" y="962" as="sourcePoint" />
            <mxPoint x="3051" y="310" as="targetPoint" />
          </mxGeometry>
        </mxCell>
        <mxCell id="IOhGfafyrwbvTF1-Rxzx-16" value="LED" style="rounded=1;whiteSpace=wrap;html=1;fontStyle=1" parent="1" vertex="1">
          <mxGeometry x="3277" y="270" width="120" height="40" as="geometry" />
        </mxCell>
        <mxCell id="IOhGfafyrwbvTF1-Rxzx-17" value="" style="endArrow=none;html=1;rounded=0;entryX=0.5;entryY=1;entryDx=0;entryDy=0;" parent="1" target="IOhGfafyrwbvTF1-Rxzx-16" edge="1">
          <mxGeometry width="50" height="50" relative="1" as="geometry">
            <mxPoint x="3339" y="974" as="sourcePoint" />
            <mxPoint x="3316.5" y="980" as="targetPoint" />
          </mxGeometry>
        </mxCell>
        <mxCell id="IOhGfafyrwbvTF1-Rxzx-23" value="" style="endArrow=classic;html=1;rounded=0;" parent="1" edge="1">
          <mxGeometry width="50" height="50" relative="1" as="geometry">
            <mxPoint x="1819" y="1026" as="sourcePoint" />
            <mxPoint x="1499" y="1026" as="targetPoint" />
          </mxGeometry>
        </mxCell>
        <mxCell id="IOhGfafyrwbvTF1-Rxzx-24" value="CLOCK -&amp;gt; configuration de l’heure du jour au format HEURE{0-23}:MINUTE{0-59}:SECONDE{0-59}" style="edgeLabel;html=1;align=center;verticalAlign=middle;resizable=0;points=[];" parent="IOhGfafyrwbvTF1-Rxzx-23" vertex="1" connectable="0">
          <mxGeometry x="0.1548" relative="1" as="geometry">
            <mxPoint x="35" y="-20" as="offset" />
          </mxGeometry>
        </mxCell>
        <mxCell id="IOhGfafyrwbvTF1-Rxzx-25" value="" style="endArrow=classic;html=1;rounded=0;" parent="1" edge="1">
          <mxGeometry width="50" height="50" relative="1" as="geometry">
            <mxPoint x="1817" y="1089.44" as="sourcePoint" />
            <mxPoint x="1497" y="1089.44" as="targetPoint" />
          </mxGeometry>
        </mxCell>
        <mxCell id="IOhGfafyrwbvTF1-Rxzx-26" value="DATE -&amp;gt; configuration de la date du jour au format MOIS{1-12},JOUR{1-31},ANNEE{2000-2099}" style="edgeLabel;html=1;align=center;verticalAlign=middle;resizable=0;points=[];" parent="IOhGfafyrwbvTF1-Rxzx-25" vertex="1" connectable="0">
          <mxGeometry x="0.1548" relative="1" as="geometry">
            <mxPoint x="35" y="-20" as="offset" />
          </mxGeometry>
        </mxCell>
        <mxCell id="IOhGfafyrwbvTF1-Rxzx-27" value="" style="endArrow=classic;html=1;rounded=0;" parent="1" edge="1">
          <mxGeometry width="50" height="50" relative="1" as="geometry">
            <mxPoint x="1817" y="1148" as="sourcePoint" />
            <mxPoint x="1497" y="1148" as="targetPoint" />
          </mxGeometry>
        </mxCell>
        <mxCell id="IOhGfafyrwbvTF1-Rxzx-28" value="DAY -&amp;gt; Configuration du jour de la semaine{MON,TUE,WED,THU,FRI,SAT,SUN}" style="edgeLabel;html=1;align=center;verticalAlign=middle;resizable=0;points=[];" parent="IOhGfafyrwbvTF1-Rxzx-27" vertex="1" connectable="0">
          <mxGeometry x="0.1548" relative="1" as="geometry">
            <mxPoint x="35" y="-20" as="offset" />
          </mxGeometry>
        </mxCell>
        <mxCell id="IOhGfafyrwbvTF1-Rxzx-30" value="" style="endArrow=classic;html=1;rounded=0;" parent="1" edge="1">
          <mxGeometry width="50" height="50" relative="1" as="geometry">
            <mxPoint x="3048" y="394" as="sourcePoint" />
            <mxPoint x="3049" y="434" as="targetPoint" />
            <Array as="points">
              <mxPoint x="3009" y="394" />
              <mxPoint x="3009" y="434" />
            </Array>
          </mxGeometry>
        </mxCell>
        <mxCell id="IOhGfafyrwbvTF1-Rxzx-31" value="Erreur d’accès à l’horloge RTC" style="edgeLabel;html=1;align=center;verticalAlign=middle;resizable=0;points=[];" parent="IOhGfafyrwbvTF1-Rxzx-30" vertex="1" connectable="0">
          <mxGeometry x="0.1106" relative="1" as="geometry">
            <mxPoint x="-53" y="-8" as="offset" />
          </mxGeometry>
        </mxCell>
        <mxCell id="IOhGfafyrwbvTF1-Rxzx-32" value="" style="endArrow=classic;html=1;rounded=0;" parent="1" edge="1">
          <mxGeometry width="50" height="50" relative="1" as="geometry">
            <mxPoint x="3054" y="435" as="sourcePoint" />
            <mxPoint x="3338" y="435" as="targetPoint" />
          </mxGeometry>
        </mxCell>
        <mxCell id="IOhGfafyrwbvTF1-Rxzx-33" value="&lt;div&gt;LED intermittente rouge et bleue (fréquence 1Hz,&lt;/div&gt;&lt;div&gt;durée identique pour les 2 couleurs)&lt;/div&gt;" style="edgeLabel;html=1;align=center;verticalAlign=middle;resizable=0;points=[];" parent="IOhGfafyrwbvTF1-Rxzx-32" vertex="1" connectable="0">
          <mxGeometry x="-0.2039" y="-3" relative="1" as="geometry">
            <mxPoint x="28" y="-24" as="offset" />
          </mxGeometry>
        </mxCell>
        <mxCell id="IOhGfafyrwbvTF1-Rxzx-35" value="" style="endArrow=classic;html=1;rounded=0;" parent="1" edge="1">
          <mxGeometry width="50" height="50" relative="1" as="geometry">
            <mxPoint x="3047" y="480" as="sourcePoint" />
            <mxPoint x="3048" y="520" as="targetPoint" />
            <Array as="points">
              <mxPoint x="3008" y="480" />
              <mxPoint x="3008" y="520" />
            </Array>
          </mxGeometry>
        </mxCell>
        <mxCell id="IOhGfafyrwbvTF1-Rxzx-36" value="Erreur d’accès aux données du GPS" style="edgeLabel;html=1;align=center;verticalAlign=middle;resizable=0;points=[];" parent="IOhGfafyrwbvTF1-Rxzx-35" vertex="1" connectable="0">
          <mxGeometry x="0.1106" relative="1" as="geometry">
            <mxPoint x="-65" y="-4" as="offset" />
          </mxGeometry>
        </mxCell>
        <mxCell id="IOhGfafyrwbvTF1-Rxzx-37" value="" style="endArrow=classic;html=1;rounded=0;" parent="1" edge="1">
          <mxGeometry width="50" height="50" relative="1" as="geometry">
            <mxPoint x="3050" y="520" as="sourcePoint" />
            <mxPoint x="3334" y="520" as="targetPoint" />
          </mxGeometry>
        </mxCell>
        <mxCell id="IOhGfafyrwbvTF1-Rxzx-38" value="&lt;div&gt;LED intermittente rouge et jaune (fréquence 1Hz,&lt;/div&gt;&lt;div&gt;durée identique pour les 2 couleurs)&lt;/div&gt;" style="edgeLabel;html=1;align=center;verticalAlign=middle;resizable=0;points=[];" parent="IOhGfafyrwbvTF1-Rxzx-37" vertex="1" connectable="0">
          <mxGeometry x="-0.2039" y="-3" relative="1" as="geometry">
            <mxPoint x="28" y="-24" as="offset" />
          </mxGeometry>
        </mxCell>
        <mxCell id="IOhGfafyrwbvTF1-Rxzx-39" value="" style="endArrow=classic;html=1;rounded=0;" parent="1" edge="1">
          <mxGeometry width="50" height="50" relative="1" as="geometry">
            <mxPoint x="3046" y="571" as="sourcePoint" />
            <mxPoint x="3047" y="611" as="targetPoint" />
            <Array as="points">
              <mxPoint x="3007" y="571" />
              <mxPoint x="3007" y="611" />
            </Array>
          </mxGeometry>
        </mxCell>
        <mxCell id="IOhGfafyrwbvTF1-Rxzx-40" value="Erreur accès aux données d’un capteur" style="edgeLabel;html=1;align=center;verticalAlign=middle;resizable=0;points=[];" parent="IOhGfafyrwbvTF1-Rxzx-39" vertex="1" connectable="0">
          <mxGeometry x="0.1106" relative="1" as="geometry">
            <mxPoint x="-65" y="-4" as="offset" />
          </mxGeometry>
        </mxCell>
        <mxCell id="IOhGfafyrwbvTF1-Rxzx-41" value="" style="endArrow=classic;html=1;rounded=0;" parent="1" edge="1">
          <mxGeometry width="50" height="50" relative="1" as="geometry">
            <mxPoint x="3050" y="614" as="sourcePoint" />
            <mxPoint x="3338" y="614" as="targetPoint" />
          </mxGeometry>
        </mxCell>
        <mxCell id="IOhGfafyrwbvTF1-Rxzx-42" value="&lt;div&gt;LED intermittente rouge et verte (fréquence 1Hz,&lt;/div&gt;&lt;div&gt;durée identique pour les 2 couleurs)&lt;/div&gt;" style="edgeLabel;html=1;align=center;verticalAlign=middle;resizable=0;points=[];" parent="IOhGfafyrwbvTF1-Rxzx-41" vertex="1" connectable="0">
          <mxGeometry x="-0.1607" y="-4" relative="1" as="geometry">
            <mxPoint x="26" y="-27" as="offset" />
          </mxGeometry>
        </mxCell>
        <mxCell id="IOhGfafyrwbvTF1-Rxzx-43" value="" style="endArrow=classic;html=1;rounded=0;" parent="1" edge="1">
          <mxGeometry width="50" height="50" relative="1" as="geometry">
            <mxPoint x="3047" y="651" as="sourcePoint" />
            <mxPoint x="3048" y="691" as="targetPoint" />
            <Array as="points">
              <mxPoint x="3008" y="651" />
              <mxPoint x="3008" y="691" />
            </Array>
          </mxGeometry>
        </mxCell>
        <mxCell id="IOhGfafyrwbvTF1-Rxzx-44" value="&lt;div&gt;Données reçues d’un capteur incohérentes -&lt;/div&gt;&lt;div&gt;vérification matérielle requise&lt;/div&gt;" style="edgeLabel;html=1;align=center;verticalAlign=middle;resizable=0;points=[];" parent="IOhGfafyrwbvTF1-Rxzx-43" vertex="1" connectable="0">
          <mxGeometry x="0.1106" relative="1" as="geometry">
            <mxPoint x="-94" y="-6" as="offset" />
          </mxGeometry>
        </mxCell>
        <mxCell id="IOhGfafyrwbvTF1-Rxzx-45" value="" style="endArrow=classic;html=1;rounded=0;" parent="1" edge="1">
          <mxGeometry width="50" height="50" relative="1" as="geometry">
            <mxPoint x="3053" y="692" as="sourcePoint" />
            <mxPoint x="3338" y="692" as="targetPoint" />
          </mxGeometry>
        </mxCell>
        <mxCell id="IOhGfafyrwbvTF1-Rxzx-46" value="&lt;div&gt;LED intermittente rouge et verte (fréquence 1Hz,&lt;/div&gt;&lt;div&gt;durée 2 fois plus longue pour le vert)&lt;/div&gt;" style="edgeLabel;html=1;align=center;verticalAlign=middle;resizable=0;points=[];" parent="IOhGfafyrwbvTF1-Rxzx-45" vertex="1" connectable="0">
          <mxGeometry x="0.0677" y="-2" relative="1" as="geometry">
            <mxPoint x="-16" y="-22" as="offset" />
          </mxGeometry>
        </mxCell>
        <mxCell id="IOhGfafyrwbvTF1-Rxzx-47" value="" style="endArrow=classic;html=1;rounded=0;" parent="1" edge="1">
          <mxGeometry width="50" height="50" relative="1" as="geometry">
            <mxPoint x="3048" y="740" as="sourcePoint" />
            <mxPoint x="3049" y="780" as="targetPoint" />
            <Array as="points">
              <mxPoint x="3009" y="740" />
              <mxPoint x="3009" y="780" />
            </Array>
          </mxGeometry>
        </mxCell>
        <mxCell id="IOhGfafyrwbvTF1-Rxzx-48" value="Carte SD pleine" style="edgeLabel;html=1;align=center;verticalAlign=middle;resizable=0;points=[];" parent="IOhGfafyrwbvTF1-Rxzx-47" vertex="1" connectable="0">
          <mxGeometry x="0.1106" relative="1" as="geometry">
            <mxPoint x="-28" y="-6" as="offset" />
          </mxGeometry>
        </mxCell>
        <mxCell id="IOhGfafyrwbvTF1-Rxzx-49" value="" style="endArrow=classic;html=1;rounded=0;" parent="1" edge="1">
          <mxGeometry width="50" height="50" relative="1" as="geometry">
            <mxPoint x="3050" y="780" as="sourcePoint" />
            <mxPoint x="3338" y="780" as="targetPoint" />
          </mxGeometry>
        </mxCell>
        <mxCell id="IOhGfafyrwbvTF1-Rxzx-50" value="&lt;div&gt;LED intermittente rouge et blanche (fréquence&lt;/div&gt;&lt;div&gt;1Hz, durée identique pour les 2 couleurs)&lt;/div&gt;" style="edgeLabel;html=1;align=center;verticalAlign=middle;resizable=0;points=[];" parent="IOhGfafyrwbvTF1-Rxzx-49" vertex="1" connectable="0">
          <mxGeometry x="-0.2335" y="-1" relative="1" as="geometry">
            <mxPoint x="28" y="-28" as="offset" />
          </mxGeometry>
        </mxCell>
        <mxCell id="IOhGfafyrwbvTF1-Rxzx-51" value="" style="endArrow=classic;html=1;rounded=0;" parent="1" edge="1">
          <mxGeometry width="50" height="50" relative="1" as="geometry">
            <mxPoint x="3046" y="864.5" as="sourcePoint" />
            <mxPoint x="3335" y="866.5" as="targetPoint" />
          </mxGeometry>
        </mxCell>
        <mxCell id="IOhGfafyrwbvTF1-Rxzx-55" value="&lt;div&gt;LED intermittente rouge et blanche (fréquence&lt;/div&gt;&lt;div&gt;1Hz, durée 2 fois plus longue pour le blanc)&lt;/div&gt;" style="edgeLabel;html=1;align=center;verticalAlign=middle;resizable=0;points=[];" parent="IOhGfafyrwbvTF1-Rxzx-51" vertex="1" connectable="0">
          <mxGeometry x="-0.248" y="-1" relative="1" as="geometry">
            <mxPoint x="29" y="-26" as="offset" />
          </mxGeometry>
        </mxCell>
        <mxCell id="IOhGfafyrwbvTF1-Rxzx-52" value="" style="endArrow=classic;html=1;rounded=0;" parent="1" edge="1">
          <mxGeometry width="50" height="50" relative="1" as="geometry">
            <mxPoint x="3046" y="824" as="sourcePoint" />
            <mxPoint x="3047" y="864" as="targetPoint" />
            <Array as="points">
              <mxPoint x="3007" y="824" />
              <mxPoint x="3007" y="864" />
            </Array>
          </mxGeometry>
        </mxCell>
        <mxCell id="IOhGfafyrwbvTF1-Rxzx-53" value="Erreur d’accès ou d’écriture sur la carte SD" style="edgeLabel;html=1;align=center;verticalAlign=middle;resizable=0;points=[];" parent="IOhGfafyrwbvTF1-Rxzx-52" vertex="1" connectable="0">
          <mxGeometry x="0.1106" relative="1" as="geometry">
            <mxPoint x="-86" y="-5" as="offset" />
          </mxGeometry>
        </mxCell>
        <mxCell id="IOhGfafyrwbvTF1-Rxzx-57" value="" style="endArrow=classic;html=1;rounded=0;" parent="1" edge="1">
          <mxGeometry width="50" height="50" relative="1" as="geometry">
            <mxPoint x="457" y="933" as="sourcePoint" />
            <mxPoint x="458" y="973" as="targetPoint" />
            <Array as="points">
              <mxPoint x="418" y="933" />
              <mxPoint x="418" y="973" />
            </Array>
          </mxGeometry>
        </mxCell>
        <mxCell id="IOhGfafyrwbvTF1-Rxzx-58" value="TIMEOUT (30S) = TRUE&amp;nbsp;" style="edgeLabel;html=1;align=center;verticalAlign=middle;resizable=0;points=[];" parent="IOhGfafyrwbvTF1-Rxzx-57" vertex="1" connectable="0">
          <mxGeometry x="0.1106" relative="1" as="geometry">
            <mxPoint x="-30" y="-8" as="offset" />
          </mxGeometry>
        </mxCell>
      </root>
    </mxGraphModel>
  </diagram>
</mxfile>
